<?xml version="1.0" encoding="UTF-8"?>
<svg version="1.1" xmlns="http://www.w3.org/2000/svg" width="500" height="500">
<path d="M0 0 C3.9628501 2.81972027 5.80606688 4.61213377 8 9 C8 13.29 8 17.58 8 22 C58.49 22 108.98 22 161 22 C161 17.71 161 13.42 161 9 C164.09609309 3.83984485 166.12605021 0.93715754 171.875 -0.9375 C177.03255932 -1.04065119 180.59239999 0.66848648 184.3125 4.1875 C187.77960002 9.96600003 188.09636807 15.33454169 188 22 C189.16273438 21.91878906 190.32546875 21.83757812 191.5234375 21.75390625 C204.90271097 21.12041792 216.66880553 23.44587036 228 31 C228 31.66 228 32.32 228 33 C228.54914063 33.06445312 229.09828125 33.12890625 229.6640625 33.1953125 C237.63340931 35.94060588 244.22571111 46.02542996 247.79296875 53.2421875 C252.74928694 64.56633198 255.33065248 74.76073947 255.16357422 87.13183594 C255.1574411 88.20776505 255.15130798 89.28369415 255.14498901 90.39222717 C255.13075124 92.71334616 255.11200978 95.03444107 255.08919907 97.35549164 C255.05426366 101.02894188 255.03377344 104.70221644 255.0173645 108.37579346 C254.96857732 118.81498803 254.89708409 129.25394371 254.80810547 139.69287109 C254.75458343 146.08985087 254.72047461 152.48669602 254.69836807 158.88385773 C254.68594844 161.31918592 254.66593758 163.75448762 254.6382103 166.18968964 C254.59983161 169.58854902 254.58599499 172.98669553 254.57763672 176.38574219 C254.56011353 177.39155838 254.54259033 178.39737457 254.52453613 179.43367004 C254.5294603 185.01911584 254.5294603 185.01911584 256.90579224 189.98590088 C257.5968808 190.65055359 258.28796936 191.3152063 259 192 C274.31333824 214.53602611 282.33379692 242.37198789 277.33984375 269.47607422 C271.54589653 299.18310313 257.1510161 324.69063906 232.4375 342.88671875 C229.67444184 344.6936577 226.86619301 346.36115306 224 348 C223.37851074 348.36512695 222.75702148 348.73025391 222.11669922 349.10644531 C211.96048145 355.03233291 202.55799771 358.75358151 191 361 C190.25540527 361.17297607 189.51081055 361.34595215 188.74365234 361.52416992 C171.32140415 365.43168639 153.71208664 363.81136838 137 358 C135.26363281 357.5359375 135.26363281 357.5359375 133.4921875 357.0625 C129.52565204 355.85567937 126.00315385 354.24044446 122.3125 352.375 C121.68150391 352.06949219 121.05050781 351.76398438 120.40039062 351.44921875 C117.18181966 349.83834149 114.34109126 348.28168677 111.55102539 345.97753906 C101.87156983 338.26426325 92.73554104 338.88419121 80.8125 339 C78.64670993 338.99034138 76.48093368 338.97703029 74.31518555 338.96044922 C67.29843772 338.92089314 60.28258815 338.95185784 53.26593018 338.98887634 C49.15907369 339.00903727 45.05219493 339.022471 40.9453125 339.03613281 C40.0724677 339.03910748 39.1996229 339.04208214 38.30032825 339.04514694 C33.77701971 339.06012309 29.25371623 339.07285211 24.73039246 339.08221436 C23.37503246 339.08507509 23.37503246 339.08507509 21.99229145 339.08799362 C20.16376428 339.09183293 18.33523682 339.09553815 16.5067091 339.09910965 C11.09054558 339.11167626 5.67489909 339.14310964 0.2589283 339.19005013 C-3.18149874 339.21734578 -6.62191432 339.2322193 -10.06242371 339.24468613 C-11.66180753 339.25325762 -13.26117422 339.26709384 -14.86045837 339.28689957 C-36.13845982 339.54432173 -53.57770628 335.75200051 -69.4765625 320.74609375 C-72.01032825 317.98876043 -73.9796969 315.14514435 -76 312 C-76.66 311.34 -77.32 310.68 -78 310 C-78.88800374 307.93937593 -79.71319429 305.85134695 -80.5 303.75 C-81.13421875 302.07164062 -81.13421875 302.07164062 -81.78125 300.359375 C-84.62599764 292.51808343 -86.14968232 285.96954716 -86.14044189 277.60317993 C-86.14341302 276.7601124 -86.14638414 275.91704488 -86.1494453 275.04842985 C-86.15811396 272.22449654 -86.15963903 269.40060571 -86.16113281 266.57666016 C-86.16576248 264.55102447 -86.17078734 262.52538966 -86.17617798 260.49975586 C-86.18929433 254.99508843 -86.19574608 249.4904332 -86.20018864 243.98575258 C-86.20312212 240.54244479 -86.20722757 237.09914032 -86.21169281 233.6558342 C-86.22536908 222.87084774 -86.23503368 212.08586888 -86.2388947 201.30087435 C-86.24336833 188.87423514 -86.26088339 176.44770631 -86.2898953 164.02110064 C-86.31156592 154.40300831 -86.32160194 144.78494689 -86.32293582 135.16683042 C-86.32398049 129.42913592 -86.32981557 123.69154517 -86.34775543 117.9538765 C-86.36432805 112.54807912 -86.36634728 107.14246241 -86.35761642 101.73664856 C-86.3568508 99.76271961 -86.36112537 97.78878058 -86.37107468 95.81487656 C-86.46462653 76.08187747 -84.34302186 59.10547809 -72 43 C-71.37609375 42.16984375 -70.7521875 41.3396875 -70.109375 40.484375 C-61.26320384 30.06555119 -47.64943973 23.54057078 -34.125 22.125 C-32.41781083 22.04987331 -30.70882335 22.00785064 -29 22 C-28.04480469 21.98582031 -27.08960938 21.97164062 -26.10546875 21.95703125 C-23.73516634 21.94045571 -21.36977676 21.95373538 -19 22 C-18.98582031 21.14277344 -18.97164063 20.28554687 -18.95703125 19.40234375 C-18.47677441 7.8891594 -18.47677441 7.8891594 -14.51953125 3.3046875 C-10.03677212 -0.5442625 -5.59536992 -1.90480678 0 0 Z M-52.5 59.58984375 C-59.52639545 68.47739751 -59 77.75184609 -59 89 C35.71 89 130.42 89 228 89 C228 74.46098036 227.25590747 66.42579912 218 56 C215.66513801 54.22976608 215.66513801 54.22976608 213.125 52.8125 C212.30257813 52.32394531 211.48015625 51.83539063 210.6328125 51.33203125 C205.17058744 48.56850195 200.74602208 47.75950902 194.625 47.875 C192.75714844 47.90207031 192.75714844 47.90207031 190.8515625 47.9296875 C189.91054688 47.95289063 188.96953125 47.97609375 188 48 C187.85304688 49.30324219 187.85304688 49.30324219 187.703125 50.6328125 C186.18881396 62.30345101 186.18881396 62.30345101 182 67 C177.72470795 69.8501947 174.00962876 69.36811969 169 69 C166 68.375 166 68.375 164 67 C162 61 162 61 161 48 C110.51 48 60.02 48 8 48 C7.67 52.29 7.34 56.58 7 61 C4.97476886 64.98295458 3.68804749 66.54130167 0 69 C-3.39255742 69.54625925 -6.60504675 69.52689674 -10 69 C-14.03955192 66.07777095 -16.32393748 62.67533228 -18 58 C-18.23106682 54.64953117 -18.17885625 51.35189853 -18 48 C-31.79530043 47.33782558 -42.64953429 49.14937619 -52.5 59.58984375 Z M-59 115 C-59.061875 142.84375 -59.12375 170.6875 -59.1875 199.375 C-59.21481201 208.15915527 -59.24212402 216.94331055 -59.27026367 225.99365234 C-59.28029842 233.88374152 -59.28029842 233.88374152 -59.28633118 241.77383423 C-59.28912044 245.28178629 -59.30034018 248.78960146 -59.31672668 252.29751587 C-59.33738471 256.77958905 -59.34345859 261.26146468 -59.33921683 265.74358106 C-59.34010312 267.3838128 -59.34600415 269.02405183 -59.35764539 270.66424251 C-59.44170262 283.09009933 -58.74529215 293.44218682 -50 303 C-40.28782062 312.28991071 -30.52171381 313.1631047 -17.63671875 313.11352539 C-16.63093277 313.11367142 -15.62514679 313.11381744 -14.58888245 313.1139679 C-11.28839914 313.11327526 -7.98797336 313.10551341 -4.6875 313.09765625 C-2.38964875 313.09578976 -0.0917971 313.09436695 2.20605469 313.09336853 C8.23611562 313.08956153 14.26615224 313.07974682 20.29620361 313.06866455 C26.45658031 313.0584113 32.61696097 313.05386254 38.77734375 313.04882812 C50.85157315 313.03812286 62.92578455 313.02106834 75 313 C76.40879442 309.94288523 76.40879442 309.94288523 74.5234375 306.98828125 C73.81178677 305.76040456 73.09530273 304.53532129 72.375 303.3125 C59.25411889 279.836498 57.06704044 249.21857324 63.96484375 223.38671875 C72.55230877 195.542514 90.55085599 172.21190933 116.15039062 157.97021484 C144.09592715 143.31134972 172.4245729 142.24059789 202.59375 149.9140625 C206.56583002 151.18039076 210.31987584 152.74353641 214.125 154.4375 C214.81464844 154.73720703 215.50429688 155.03691406 216.21484375 155.34570312 C219.98388368 157.00681919 223.4879403 158.83312543 227 161 C227.33 161 227.66 161 228 161 C228 145.82 228 130.64 228 115 C133.29 115 38.58 115 -59 115 Z M101.84375 202.484375 C95.74234636 210.22846424 92.37216464 218.83954433 89 228 C88.64808594 228.89589844 88.29617187 229.79179687 87.93359375 230.71484375 C80.8057271 250.85881471 85.67114693 273.8357059 94.4375 292.5625 C97.08719596 297.48336392 100.39389961 301.74683724 104 306 C104.680625 306.82628906 105.36125 307.65257812 106.0625 308.50390625 C111.38951138 314.73460706 117.15792718 319.50497819 124 324 C124.90685547 324.59748047 124.90685547 324.59748047 125.83203125 325.20703125 C144.47945026 336.59511439 166.37041755 339.62823842 187.49609375 334.9140625 C210.14148718 329.00656856 229.04922538 315.56537391 241.06640625 295.38671875 C241.70449219 294.26910156 242.34257812 293.15148437 243 292 C243.50402344 291.11957031 244.00804687 290.23914063 244.52734375 289.33203125 C254.5028622 269.77516377 254.1956884 246.0715476 247.93359375 225.49609375 C240.01818414 203.3695197 223.63827597 187.41380898 203 177 C199.39105385 175.3739913 195.80244542 174.09472351 192 173 C190.98035156 172.70222656 189.96070313 172.40445313 188.91015625 172.09765625 C155.54239532 163.64864327 123.90730399 177.06332367 101.84375 202.484375 Z " fill="#000000" transform="translate(146,69)"/>
<path d="M0 0 C3.64959976 2.16242805 6.70692981 4.88568576 8 9 C8.92690318 14.74298143 8.92439062 19.83911791 8.39453125 25.609375 C6.34794533 45.23524884 6.34794533 45.23524884 13.34375 62.80078125 C17.48050685 67.12921276 22.05497578 70.7424998 26.87719727 74.27416992 C29.63235259 76.51410011 30.94639132 78.61887396 32 82 C32.41696747 86.19241839 31.41608648 89.34000076 29.1875 92.875 C25.35811516 96.59497385 21.79192593 97.66382763 16.52734375 97.59375 C11.46307573 96.40399924 7.54104249 92.68150138 4 89 C4 88.34 4 87.68 4 87 C3.360625 86.731875 2.72125 86.46375 2.0625 86.1875 C0 85 0 85 -1 82 C-1.66 81.67 -2.32 81.34 -3 81 C-5 80 -5 80 -6 77 C-6.66 76.67 -7.32 76.34 -8 76 C-10 75 -10 75 -11 72 C-13.00016466 70.79117904 -13.00016466 70.79117904 -15 70 C-15 69.34 -15 68.68 -15 68 C-15.66 68 -16.32 68 -17 68 C-17.95049372 64.78019252 -18.142915 61.85181956 -18.17700195 58.50048828 C-18.18983719 57.39899445 -18.20267242 56.29750061 -18.21589661 55.16262817 C-18.22328354 53.977164 -18.23067047 52.79169983 -18.23828125 51.5703125 C-18.246353 50.34722382 -18.25442474 49.12413513 -18.26274109 47.86398315 C-18.27656813 45.27668673 -18.28729645 42.68937218 -18.29516602 40.10205078 C-18.31240363 36.14711047 -18.356307 32.19300074 -18.40039062 28.23828125 C-18.41051567 25.72396448 -18.41903236 23.2096406 -18.42578125 20.6953125 C-18.44328934 19.51389679 -18.46079742 18.33248108 -18.47883606 17.11526489 C-18.46213706 10.79200656 -18.37232114 6.74402068 -14 2 C-9.43549187 -1.21590345 -5.28526914 -1.73719005 0 0 Z " fill="#000000" transform="translate(320,262)"/>
<path d="M0 0 C1.48831242 0.00667405 2.97660807 0.01863442 4.46484375 0.03515625 C5.22345703 0.03966797 5.98207031 0.04417969 6.76367188 0.04882812 C8.64326246 0.06064945 10.52281274 0.07858547 12.40234375 0.09765625 C15.17805336 6.81032337 17.63408899 13.56589746 19.85546875 20.48046875 C20.16055359 21.42074921 20.46563843 22.36102966 20.77996826 23.32980347 C21.74062995 26.29306199 22.69656744 29.25781884 23.65234375 32.22265625 C24.30828008 34.24879949 24.96452729 36.27484211 25.62109375 38.30078125 C27.2184355 43.23191852 28.81154636 48.16440406 30.40234375 53.09765625 C33.11357551 46.55419799 35.50100744 39.98547828 37.6015625 33.22265625 C37.88207962 32.33151123 38.16259674 31.44036621 38.45161438 30.5222168 C39.33467427 27.71516023 40.21258401 24.90653031 41.08984375 22.09765625 C41.97859722 19.26047247 42.86846393 16.42364757 43.76020813 13.58740234 C44.31191979 11.83181878 44.86177996 10.07565206 45.40959167 8.31884766 C45.65687515 7.5304248 45.90415863 6.74200195 46.15893555 5.9296875 C46.37559372 5.23593018 46.59225189 4.54217285 46.81547546 3.82739258 C47.40234375 2.09765625 47.40234375 2.09765625 48.40234375 0.09765625 C53.68234375 0.09765625 58.96234375 0.09765625 64.40234375 0.09765625 C63.03571215 6.81010367 61.16094503 13.15724011 58.91796875 19.625 C58.57989197 20.61278946 58.24181519 21.60057892 57.89349365 22.61830139 C56.81763295 25.75882668 55.73523398 28.89704874 54.65234375 32.03515625 C53.58850437 35.13187922 52.52603951 38.22907121 51.46374512 41.32632446 C50.77070929 43.34668123 50.07711256 45.36684569 49.38293457 47.3868103 C46.33247311 56.27191504 43.35769879 65.1804765 40.40234375 74.09765625 C34.13234375 74.09765625 27.86234375 74.09765625 21.40234375 74.09765625 C17.79710432 65.68861752 14.63685572 57.2444828 11.7578125 48.5625 C11.13583733 46.70087975 11.13583733 46.70087975 10.501297 44.801651 C9.63377007 42.20344517 8.76943562 39.60420653 7.9074707 37.00415039 C6.80294324 33.67330653 5.69021453 30.3452681 4.57516003 27.01793575 C3.50667821 23.82590666 2.44503848 20.63161641 1.3828125 17.4375 C0.98289597 16.24382309 0.58297943 15.05014618 0.17094421 13.82029724 C-0.19331161 12.71807327 -0.55756744 11.6158493 -0.93286133 10.48022461 C-1.41653923 9.02561073 -1.41653923 9.02561073 -1.9099884 7.54161072 C-2.59765625 5.09765625 -2.59765625 5.09765625 -2.59765625 2.09765625 C-3.25765625 1.76765625 -3.91765625 1.43765625 -4.59765625 1.09765625 C-3.59765625 0.09765625 -3.59765625 0.09765625 0 0 Z " fill="#000000" transform="translate(92.59765625,234.90234375)"/>
<path d="M0 0 C19.14 0 38.28 0 58 0 C58 4.29 58 8.58 58 13 C51.07 13 44.14 13 37 13 C37 33.13 37 53.26 37 74 C31.72 74 26.44 74 21 74 C21 53.87 21 33.74 21 13 C14.07 13 7.14 13 0 13 C0 8.71 0 4.42 0 0 Z " fill="#000000" transform="translate(159,235)"/>
<path d="" fill="#000000" transform="translate(0,0)"/>
<path d="M0 0 C2 1 2 1 2 1 Z " fill="#000000" transform="translate(346,90)"/>
<path d="M0 0 C2 1 2 1 2 1 Z " fill="#000000" transform="translate(113,90)"/>
</svg>
